<?xml version="1.0" standalone="no"?>
<!DOCTYPE svg PUBLIC "-//W3C//DTD SVG 20010904//EN"
 "http://www.w3.org/TR/2001/REC-SVG-20010904/DTD/svg10.dtd">
<svg version="1.0" xmlns="http://www.w3.org/2000/svg"
 width="96.000000pt" height="94.000000pt" viewBox="0 0 96.000000 94.000000"
 preserveAspectRatio="xMidYMid meet">

<g transform="translate(0.000000,94.000000) scale(0.100000,-0.100000)"
fill="#000000" stroke="none">
<path d="M350 911 c-78 -25 -128 -53 -181 -100 -116 -102 -176 -272 -149 -421
43 -238 257 -405 495 -387 352 27 546 420 354 719 -106 164 -336 248 -519 189z
m222 -2 c132 -28 254 -122 313 -243 135 -276 -32 -597 -338 -648 -242 -40
-487 143 -517 387 -38 309 239 568 542 504z"/>
<path d="M480 850 c0 -11 2 -20 4 -20 2 0 6 9 9 20 3 11 1 20 -4 20 -5 0 -9
-9 -9 -20z"/>
<path d="M525 860 c3 -5 8 -10 11 -10 2 0 4 5 4 10 0 6 -5 10 -11 10 -5 0 -7
-4 -4 -10z"/>
<path d="M368 854 c-7 -7 2 -44 11 -44 4 0 7 11 7 25 0 24 -7 31 -18 19z"/>
<path d="M420 842 c6 -13 14 -21 18 -18 3 4 -2 14 -12 24 -18 16 -18 16 -6 -6z"/>
<path d="M461 844 c0 -11 3 -14 6 -6 3 7 2 16 -1 19 -3 4 -6 -2 -5 -13z"/>
<path d="M567 840 c-4 -17 -3 -19 8 -10 10 8 14 7 17 -7 3 -15 5 -14 10 5 4
13 4 21 1 18 -4 -3 -12 -1 -18 4 -9 8 -14 5 -18 -10z"/>
<path d="M340 830 c0 -6 -4 -8 -10 -5 -5 3 -10 2 -10 -4 0 -5 9 -9 20 -8 21 1
26 12 10 22 -5 3 -10 1 -10 -5z"/>
<path d="M622 828 c-7 -9 -6 -17 4 -26 12 -11 14 -9 14 13 0 28 -3 30 -18 13z"/>
<path d="M660 805 c-11 -13 -10 -14 4 -9 9 3 16 10 16 15 0 13 -6 11 -20 -6z"/>
<path d="M305 800 c6 -10 4 -12 -8 -7 -10 4 -17 2 -17 -5 0 -6 -6 -5 -17 3
-14 12 -16 12 -8 0 6 -11 4 -13 -8 -8 -16 6 -23 -4 -11 -16 6 -6 64 11 77 23
5 4 3 11 -4 15 -8 6 -10 4 -4 -5z"/>
<path d="M458 773 c18 -2 45 -2 60 0 15 2 0 4 -33 4 -33 0 -45 -2 -27 -4z"/>
<path d="M360 755 c-32 -18 -25 -18 25 0 22 8 31 14 20 14 -11 0 -31 -6 -45
-14z"/>
<path d="M579 755 c18 -8 36 -15 40 -15 13 1 -45 29 -59 29 -8 0 0 -6 19 -14z"/>
<path d="M190 738 c-5 -13 -9 -19 -9 -15 -1 8 -31 -17 -31 -26 0 -3 7 -7 14
-10 11 -4 13 -1 9 10 -4 11 -2 14 5 9 15 -9 52 11 51 27 0 9 -2 9 -6 0 -8 -21
-26 -15 -20 7 7 27 -1 25 -13 -2z"/>
<path d="M741 736 c-12 -14 -12 -17 -1 -14 8 2 14 -2 15 -8 0 -6 7 -18 17 -27
14 -14 17 -14 22 -2 3 8 2 14 -2 14 -28 -4 -34 1 -21 18 8 9 9 14 2 10 -7 -4
-13 0 -15 9 -3 16 -4 16 -17 0z"/>
<path d="M289 716 c-54 -37 -120 -144 -119 -193 1 -10 9 5 19 34 17 50 60 117
91 140 43 33 55 42 50 43 -3 0 -21 -11 -41 -24z"/>
<path d="M645 725 c75 -58 117 -118 134 -192 7 -29 9 -32 10 -13 2 59 -80 180
-141 210 -22 11 -22 11 -3 -5z"/>
<path d="M135 660 c19 -21 30 -27 21 -11 -4 5 -3 11 1 14 5 2 2 2 -4 1 -7 -2
-13 1 -13 6 0 6 -5 10 -12 10 -6 0 -3 -9 7 -20z"/>
<path d="M455 662 c-34 -7 -94 -82 -67 -82 5 0 27 -16 50 -36 l42 -36 42 36
c23 20 46 36 50 36 13 0 -1 39 -21 59 -20 20 -65 30 -96 23z"/>
<path d="M794 658 c-5 -7 -3 -8 6 -3 9 6 10 2 5 -15 -5 -15 -4 -20 4 -16 13 9
15 46 2 46 -6 0 -13 -5 -17 -12z"/>
<path d="M123 634 c9 -3 17 -10 17 -15 0 -6 -10 -7 -22 -4 -18 6 -20 5 -11 -5
14 -15 46 -5 41 13 -3 6 -13 13 -24 14 -16 2 -16 1 -1 -3z"/>
<path d="M850 591 c0 -8 -7 -11 -15 -7 -8 3 -15 1 -15 -4 0 -6 6 -10 14 -10
17 0 31 18 22 27 -3 4 -6 1 -6 -6z"/>
<path d="M103 574 c25 -8 21 -27 -4 -21 -16 4 -19 3 -11 -5 14 -14 45 -2 40
15 -3 6 -13 13 -24 14 -16 2 -16 1 -1 -3z"/>
<path d="M837 553 c-14 -14 -6 -23 21 -22 23 2 24 2 4 6 -12 2 -20 9 -17 14 7
10 1 12 -8 2z"/>
<path d="M100 519 c0 -5 -5 -7 -12 -3 -7 4 -8 3 -4 -4 10 -16 23 -15 30 3 3 8
1 15 -4 15 -6 0 -10 -5 -10 -11z"/>
<path d="M845 510 c-3 -5 0 -7 8 -4 8 3 18 1 22 -5 3 -7 -3 -11 -17 -12 -13 0
-17 -3 -10 -6 7 -3 20 -2 28 1 13 5 14 9 4 21 -14 17 -26 19 -35 5z"/>
<path d="M330 489 c80 -3 213 -3 295 1 121 5 93 6 -145 6 -233 0 -265 -1 -150
-7z"/>
<path d="M76 467 c8 -21 35 -19 42 3 4 12 2 13 -10 3 -11 -10 -17 -10 -27 0
-10 9 -11 8 -5 -6z"/>
<path d="M845 459 c-4 -6 -4 -13 -1 -16 3 -4 6 -1 6 6 0 8 6 11 16 7 8 -3 12
-2 9 4 -8 13 -22 13 -30 -1z"/>
<path d="M200 431 c0 -15 5 -41 10 -57 l11 -30 64 20 c60 19 64 22 59 46 -11
50 -11 50 -79 50 -65 0 -65 0 -65 -29z"/>
<path d="M350 433 c0 -43 10 -49 68 -45 52 4 52 4 52 38 l0 34 -60 0 c-59 0
-60 -1 -60 -27z"/>
<path d="M487 453 c-4 -3 -7 -19 -7 -34 0 -26 2 -27 58 -31 62 -4 72 2 72 45
0 26 -1 27 -58 27 -32 0 -62 -3 -65 -7z"/>
<path d="M626 448 c-19 -61 -18 -64 37 -82 28 -10 57 -19 62 -22 13 -5 35 52
35 89 0 27 -1 27 -65 27 -44 0 -67 -4 -69 -12z"/>
<path d="M171 405 c-2 -55 81 -174 143 -207 11 -6 -3 10 -32 37 -55 50 -77 83
-98 150 -7 22 -13 31 -13 20z"/>
<path d="M781 404 c0 -11 3 -14 6 -6 3 7 2 16 -1 19 -3 4 -6 -2 -5 -13z"/>
<path d="M90 396 c7 -7 13 -7 20 0 6 6 3 10 -10 10 -13 0 -16 -4 -10 -10z"/>
<path d="M835 401 c-4 -7 0 -8 10 -4 10 3 21 0 27 -8 8 -12 9 -11 5 1 -5 18
-33 25 -42 11z"/>
<path d="M93 363 c0 -7 4 -13 8 -13 4 0 9 6 12 13 3 8 0 14 -7 14 -7 0 -13 -6
-13 -14z"/>
<path d="M373 372 c-8 -5 -8 -15 2 -37 11 -28 15 -30 54 -27 39 4 41 6 41 38
0 33 -1 34 -42 34 -24 0 -48 -4 -55 -8z"/>
<path d="M482 348 c3 -31 6 -33 47 -39 41 -5 44 -4 56 25 16 37 6 44 -63 45
-43 1 -43 1 -40 -31z"/>
<path d="M758 340 c-9 -22 -15 -40 -13 -40 8 0 36 61 33 70 -2 5 -11 -9 -20
-30z"/>
<path d="M835 370 c4 -7 1 -16 -6 -21 -10 -6 -6 -8 14 -7 32 3 34 9 6 26 -14
9 -19 10 -14 2z"/>
<path d="M278 353 c-27 -9 -48 -20 -48 -24 0 -5 13 -23 28 -40 l28 -31 46 23
45 24 -14 33 c-15 36 -19 37 -85 15z"/>
<path d="M600 345 c-6 -16 -13 -31 -15 -36 -3 -4 16 -17 42 -30 l46 -22 28 33
c16 18 26 37 23 41 -3 5 -23 13 -45 19 -22 6 -47 14 -54 17 -10 3 -18 -5 -25
-22z"/>
<path d="M130 333 c5 -2 10 -9 10 -14 0 -12 -27 -11 -33 1 -3 6 -4 5 -3 -2 4
-18 41 -16 41 1 0 8 -6 15 -13 17 -7 1 -8 0 -2 -3z"/>
<path d="M813 307 c0 -7 9 -14 19 -14 16 -2 17 1 8 13 -15 18 -27 18 -27 1z"/>
<path d="M400 290 c0 -5 5 -21 12 -35 17 -38 52 -30 56 13 3 31 2 32 -32 32
-20 0 -36 -4 -36 -10z"/>
<path d="M480 271 c0 -46 49 -57 69 -15 15 34 7 44 -35 44 -31 0 -34 -3 -34
-29z"/>
<path d="M130 279 c-11 -8 -9 -9 10 -3 22 6 23 5 11 -10 -12 -14 -12 -16 3
-10 19 7 22 34 4 34 -7 0 -20 -5 -28 -11z"/>
<path d="M335 273 c-42 -22 -42 -22 -15 -43 26 -21 57 -25 78 -12 9 6 10 16 1
40 -12 36 -21 38 -64 15z"/>
<path d="M566 265 c-9 -13 -16 -29 -16 -34 0 -20 47 -23 80 -6 36 19 31 30
-22 53 -23 10 -28 8 -42 -13z"/>
<path d="M690 247 c-25 -23 -55 -48 -65 -55 -11 -7 -6 -6 10 3 32 16 58 37 89
73 30 34 16 26 -34 -21z"/>
<path d="M795 280 c3 -5 -3 -16 -12 -26 -16 -16 -16 -17 -1 -12 9 4 19 2 22
-5 3 -7 3 -2 0 10 -3 15 0 22 13 25 15 3 14 5 -5 10 -12 3 -20 2 -17 -2z"/>
<path d="M171 242 c3 -19 -2 -25 -11 -12 -6 9 -10 10 -10 3 0 -19 16 -23 35
-9 16 12 16 13 2 19 -9 3 -16 3 -16 -1z"/>
<path d="M455 225 c-5 -2 -22 -6 -37 -9 -42 -9 -34 -24 17 -32 78 -11 175 13
118 30 -30 8 -87 15 -98 11z"/>
<path d="M746 221 c-3 -5 2 -15 12 -22 16 -13 16 -13 2 5 -14 18 -13 19 8 14
12 -4 20 -2 16 3 -7 12 -31 12 -38 0z"/>
<path d="M190 205 c-11 -13 -10 -14 4 -9 9 3 16 10 16 15 0 13 -6 11 -20 -6z"/>
<path d="M560 170 c-21 -7 -21 -8 -5 -9 11 0 27 4 35 9 18 11 5 11 -30 0z"/>
<path d="M398 163 c7 -3 16 -2 19 1 4 3 -2 6 -13 5 -11 0 -14 -3 -6 -6z"/>
<path d="M453 153 c15 -2 39 -2 55 0 15 2 2 4 -28 4 -30 0 -43 -2 -27 -4z"/>
<path d="M422 135 c4 -4 3 -14 -3 -22 -7 -8 -8 -13 -1 -13 15 0 23 28 9 36 -7
4 -9 4 -5 -1z"/>
<path d="M450 130 c0 -6 4 -9 9 -5 5 3 12 -2 14 -10 4 -12 5 -12 3 1 -1 19
-26 32 -26 14z"/>
<path d="M502 120 c0 -14 2 -19 5 -12 2 6 2 18 0 25 -3 6 -5 1 -5 -13z"/>
<path d="M530 130 c0 -6 4 -9 9 -5 5 3 12 -2 14 -10 4 -12 5 -12 3 1 -1 19
-26 32 -26 14z"/>
<path d="M347 84 c-8 -8 1 -24 14 -24 5 0 9 7 9 15 0 15 -12 20 -23 9z"/>
<path d="M602 78 c6 -18 28 -21 28 -4 0 9 -7 16 -16 16 -9 0 -14 -5 -12 -12z"/>
<path d="M405 69 c-10 -15 3 -25 16 -12 7 7 7 13 1 17 -6 3 -14 1 -17 -5z"/>
<path d="M474 66 c-13 -14 -7 -36 11 -36 18 0 25 23 11 36 -8 8 -15 8 -22 0z"/>
<path d="M546 72 c-3 -6 -1 -14 5 -17 15 -10 25 3 12 16 -7 7 -13 7 -17 1z"/>
</g>
</svg>
